<svg xmlns="http://www.w3.org/2000/svg" viewBox="0 0 152 46" width="152" height="46"><style>.st4{fill:#2c3f49}</style><path d="M14 1.3c-1-1-2.6-1-3.6.1s-1 2.6 0 3.6h.1l.1.1 15.6 15.6c.1.1.3.2.4.2.2 0 .3-.1.4-.2l2.8-2.8c.1-.1.2-.3.2-.4 0-.2-.1-.3-.2-.4L14.1 1.4c0-.1-.1-.1-.1-.1z" fill="#e26252"/><path d="M17 13.3c-1-1-2.6-1-3.6.1-1 1-1 2.6 0 3.6l8.3 8.3c.2.2.6.2.9 0l2.8-2.8c.1-.1.2-.3.2-.4 0-.2-.1-.3-.2-.4L17 13.3z" fill="#e1b449"/><path d="M13.7 19c-1-1-2.6-1-3.6 0s-1 2.6 0 3.6l7.1 7.1c.1.1.3.2.4.2.2 0 .3-.1.4-.2l2.8-2.8c.1-.1.2-.3.2-.4 0-.2-.1-.3-.2-.4L13.7 19z" fill="#8faf59"/><path d="M4.7 19.1c-1-1-2.6-1-3.6 0s-1 2.6 0 3.6v.1l11.6 11.5c.2.2.6.2.9 0l2.7-2.8c.1-.1.2-.3.2-.4 0-.2-.1-.3-.2-.4L4.7 19.1z" fill="#339e8a"/><path class="st4" d="M31.2 13.3v.2-.4.2zM87.4 25c-.1-.2-.3-.4-.5-.5l-.1-.1c-.2-.2-.5-.3-.7-.5l-1.2-.6c-.4-.2-.7-.4-1-.5-.2-.1-.4-.2-.5-.4-.2-.2-.3-.3-.3-.5v-.2c0-.4.2-.7.5-.9.3-.2.7-.3 1.1-.3.3 0 .6.1.8.2l.2.2c.1.1.2.1.3 0l1.1-.8c.1-.1.1-.3 0-.4-.2-.3-.5-.5-.8-.6-.5-.3-1.1-.4-1.7-.5-.5 0-.9.1-1.3.2s-.8.4-1.1.6c-.3.3-.6.6-.8 1-.2.4-.3.8-.3 1.2 0 .4.1.8.2 1.2.2.4.4.7.7 1l.2.2c.2.2.4.3.6.4.3.1.5.3.8.4l.8.4c.3.1.5.2.8.4l.3.2c.3.2.5.4.6.7v.5c0 .4-.2.9-.6 1.1-.4.3-.8.4-1.3.4-.4 0-.8-.1-1.1-.4l-.3-.3c-.1-.1-.2-.1-.4 0l-1.1.8c-.1.1-.1.3-.1.4.3.4.6.7 1 .9.6.3 1.2.5 1.9.5.5 0 1-.1 1.4-.2.4-.2.8-.4 1.2-.7.3-.3.6-.7.8-1.1.2-.4.3-.9.3-1.4 0-.3 0-.7-.1-1 .1-.4-.1-.7-.3-1zM151.9 26c-.1-.3-.3-.6-.5-.9-.1-.2-.3-.4-.5-.5l-.1-.1c-.2-.2-.5-.3-.7-.5l-1.2-.6c-.4-.2-.7-.4-1-.5-.2-.1-.4-.2-.5-.4-.2-.2-.3-.3-.3-.5v-.2c0-.4.2-.7.5-.9.3-.2.7-.3 1.1-.3.3 0 .6.1.9.2l.2.2c.1.1.2.1.3 0l1.1-.8c.1-.1.1-.3 0-.4-.2-.3-.5-.5-.8-.6-.5-.3-1.1-.4-1.7-.5-.5 0-.9.1-1.4.2-.4.1-.8.4-1.1.6-.3.3-.6.6-.8 1-.2.4-.3.8-.3 1.2 0 .4.1.8.2 1.2.2.4.4.7.7 1l.1.2c.2.2.4.3.6.4.3.1.5.3.8.4l.8.4c.3.1.5.2.8.4l.3.2c.3.2.5.4.6.7v.5c0 .4-.2.9-.6 1.1-.4.3-.8.4-1.3.4-.4 0-.8-.1-1.1-.4l-.3-.3c-.1-.1-.2-.1-.4 0l-1.1.8c-.1.1-.1.3-.1.4.3.4.6.7 1 .9.6.3 1.2.5 1.9.5.5 0 1-.1 1.4-.2.4-.2.8-.4 1.2-.7.3-.3.6-.7.8-1.1.2-.4.3-.9.3-1.4.3-.4.3-.8.2-1.1zM59.8 13.6c-.9.3-1.5 1.1-1.5 2v3.9c0 .2-.1.3-.3.3-.1 0-.1 0-.2-.1-.5-.4-1.1-.7-1.7-.9-.6-.2-1.3-.3-1.9-.3-.8 0-1.6.2-2.3.5-1.4.6-2.6 1.7-3.2 3.2-.6 1.5-.6 3.2 0 4.6 1.3 3 4.8 4.4 7.8 3.2 1.4-.6 2.6-1.7 3.2-3.2.3-.7.5-1.5.5-2.3V13.9c0-.2-.2-.4-.4-.3.1-.1 0-.1 0 0zm-1.5 10.8c0 .5-.1 1.1-.3 1.6-.2.5-.5.9-.9 1.3s-.8.7-1.3.9c-1 .4-2.1.4-3.2 0-.5-.2-.9-.5-1.3-.9s-.7-.8-.9-1.3c-.4-1-.4-2.2 0-3.2.2-.5.5-.9.9-1.3 1.6-1.6 4.2-1.6 5.8 0 .4.4.7.8.9 1.3.2.5.3 1 .3 1.6zM101.5 19.3c-1.3-.8-2.9-1.1-4.3-.6-.5.1-.9.4-1.3.6-.1.1-.3.1-.4-.1 0-.1-.1-.1 0-.2v-5.2c0-.2-.1-.3-.3-.3h-.1c-.9.3-1.5 1.1-1.5 2v14.6c0 .2.1.3.3.3h1.3c.2 0 .3-.1.3-.3v-6.5c0-.4.1-.9.3-1.3.2-.4.4-.7.7-1 .3-.3.6-.5 1-.7.8-.3 1.7-.3 2.6 0 .4.2.7.4 1 .7.3.3.5.6.7 1 .2.4.3.8.3 1.3v6.5c0 .2.1.3.3.3h1.3c.2 0 .3-.1.3-.3v-6.5c0-.9-.2-1.7-.6-2.5-.7-.7-1.2-1.3-1.9-1.8zM115.5 18.4h-1.8c-.1 0-.2-.1-.2-.2v-4.6c0-.1-.1-.2-.2-.2h-.1c-.9.3-1.5 1.1-1.6 2v2.8c0 .1-.1.2-.2.2h-1.8c-.1 0-.2.1-.2.2V20c0 .1.1.2.2.2h1.8c.1 0 .2.1.2.2V30c0 .1.1.2.2.2h1.4c.1 0 .2-.1.2-.2v-9.6c0-.1.1-.2.2-.2h1.8c.1 0 .2-.1.2-.2v-1.4c.1-.1 0-.2-.1-.2zM137.6 18.4h1.4c.1 0 .2.1.2.2v11.5c0 .1-.1.2-.2.2h-1.4c-.1 0-.2-.1-.2-.2V18.6c-.1-.1 0-.2.2-.2zM129.2 19.3c-1.3-.8-2.9-1.1-4.3-.6-.5.1-.9.4-1.3.6h-.1c-.1.1-.3 0-.3-.1v-5.5c0-.1-.1-.2-.2-.2h-.1c-.9.3-1.5 1.1-1.5 2v14.7c0 .1.1.2.2.2h1.4c.1 0 .2-.1.2-.2v-6.5c0-.4.1-.9.3-1.3.2-.4.4-.7.7-1 .9-1 2.4-1.2 3.6-.7.8.3 1.4 1 1.8 1.8.2.4.3.8.3 1.3v6.5c0 .1.1.2.2.2h1.4c.1 0 .2-.1.2-.2v-6.6c0-.9-.2-1.7-.6-2.5-.7-.8-1.2-1.5-1.9-1.9z"/><circle class="st4" cx="138.2" cy="15.9" r="1.1"/><path class="st4" d="M74.4 20.2c-.6-.5-1.2-1-1.9-1.3-1.5-.6-3.2-.6-4.6 0-1.4.6-2.6 1.8-3.2 3.2-.3.7-.5 1.5-.5 2.3 0 .8.2 1.6.5 2.3.3.7.7 1.4 1.3 1.9 1.6 1.6 4 2.2 6.2 1.4.6-.2 1.2-.5 1.7-.9.1-.1.3-.1.4.1 0 0 .1.1.1.2v.6c0 .2.1.3.3.3H76c.2 0 .3-.1.3-.3v-5.5c0-.8-.2-1.6-.5-2.3-.4-.8-.9-1.4-1.4-2zm-.4 5.9c-.4 1-1.2 1.8-2.2 2.2-1 .4-2.2.4-3.2 0s-1.8-1.2-2.2-2.2c-.4-1-.4-2.2 0-3.2s1.2-1.8 2.2-2.2c1-.4 2.2-.4 3.2 0s1.8 1.2 2.2 2.2c.2.5.3 1.1.3 1.6s-.1 1.1-.3 1.6zM36 8c-2.7.3-4.7 2.5-4.8 5.2v4.1c.1.6-.2 1.3-.6 1.7L28 21.6c-.2.2-.3.6-.1.9l1.5 1.4c1.3 1.3 2.1 3 2 4.9 0 1.9-.8 3.6-2.2 4.9-1.3 1.4-3.1 2.2-4.9 2.2-1.8.1-3.6-.7-4.9-2l-1.5-1.4c-.3-.3-.8 0-.9.1l-2.6 2.6c-.3.2-.3.6-.1.9l1.6 1.6c.9.9 2 1.7 3.1 2.3 1.1.6 2.3.9 3.6 1.1 1.2.2 2.5.2 3.7 0 1.3-.2 2.5-.6 3.6-1.2 1.2-.6 2.2-1.4 3.1-2.3 1.1-1.1 2-2.5 2.7-4 .6-1.5.9-3 .9-4.6V8.6c0-.3-.2-.5-.4-.6-.1-.1-.1 0-.2 0zM87.4 25c-.1-.2-.3-.4-.5-.5l-.1-.1c-.2-.2-.5-.3-.7-.5l-1.2-.6c-.4-.2-.7-.4-1-.5-.2-.1-.4-.2-.5-.4-.2-.2-.3-.3-.3-.5v-.2c0-.4.2-.7.5-.9.3-.2.7-.3 1.1-.3.3 0 .6.1.8.2l.2.2c.1.1.2.1.3 0l1.1-.8c.1-.1.1-.3 0-.4-.2-.3-.5-.5-.8-.6-.5-.3-1.1-.4-1.7-.5-.5 0-.9.1-1.3.2s-.8.4-1.1.6c-.3.3-.6.6-.8 1-.2.4-.3.8-.3 1.2 0 .4.1.8.2 1.2.2.4.4.7.7 1l.2.2c.2.2.4.3.6.4.3.1.5.3.8.4l.8.4c.3.1.5.2.8.4l.3.2c.3.2.5.4.6.7v.5c0 .4-.2.9-.6 1.1-.4.3-.8.4-1.3.4-.4 0-.8-.1-1.1-.4l-.3-.3c-.1-.1-.2-.1-.4 0l-1.1.8c-.1.1-.1.3-.1.4.3.4.6.7 1 .9.6.3 1.2.5 1.9.5.5 0 1-.1 1.4-.2.4-.2.8-.4 1.2-.7.3-.3.6-.7.8-1.1.2-.4.3-.9.3-1.4 0-.3 0-.7-.1-1 .1-.4-.1-.7-.3-1zM151.9 26c-.1-.3-.3-.6-.5-.9-.1-.2-.3-.4-.5-.5l-.1-.1c-.2-.2-.5-.3-.7-.5l-1.2-.6c-.4-.2-.7-.4-1-.5-.2-.1-.4-.2-.5-.4-.2-.2-.3-.3-.3-.5v-.2c0-.4.2-.7.5-.9.3-.2.7-.3 1.1-.3.3 0 .6.1.9.2l.2.2c.1.1.2.1.3 0l1.1-.8c.1-.1.1-.3 0-.4-.2-.3-.5-.5-.8-.6-.5-.3-1.1-.4-1.7-.5-.5 0-.9.1-1.4.2-.4.1-.8.4-1.1.6-.3.3-.6.6-.8 1-.2.4-.3.8-.3 1.2 0 .4.1.8.2 1.2.2.4.4.7.7 1l.1.2c.2.2.4.3.6.4.3.1.5.3.8.4l.8.4c.3.1.5.2.8.4l.3.2c.3.2.5.4.6.7v.5c0 .4-.2.9-.6 1.1-.4.3-.8.4-1.3.4-.4 0-.8-.1-1.1-.4l-.3-.3c-.1-.1-.2-.1-.4 0l-1.1.8c-.1.1-.1.3-.1.4.3.4.6.7 1 .9.6.3 1.2.5 1.9.5.5 0 1-.1 1.4-.2.4-.2.8-.4 1.2-.7.3-.3.6-.7.8-1.1.2-.4.3-.9.3-1.4.3-.4.3-.8.2-1.1zM59.8 13.6c-.9.3-1.5 1.1-1.5 2v3.9c0 .2-.1.3-.3.3-.1 0-.1 0-.2-.1-.5-.4-1.1-.7-1.7-.9-.6-.2-1.3-.3-1.9-.3-.8 0-1.6.2-2.3.5-1.4.6-2.6 1.7-3.2 3.2-.6 1.5-.6 3.2 0 4.6 1.3 3 4.8 4.4 7.8 3.2 1.4-.6 2.6-1.7 3.2-3.2.3-.7.5-1.5.5-2.3V13.9c0-.2-.2-.4-.4-.3.1-.1 0-.1 0 0zm-1.5 10.8c0 .5-.1 1.1-.3 1.6-.2.5-.5.9-.9 1.3s-.8.7-1.3.9c-1 .4-2.1.4-3.2 0-.5-.2-.9-.5-1.3-.9s-.7-.8-.9-1.3c-.4-1-.4-2.2 0-3.2.2-.5.5-.9.9-1.3 1.6-1.6 4.2-1.6 5.8 0 .4.4.7.8.9 1.3.2.5.3 1 .3 1.6zM101.5 19.3c-1.3-.8-2.9-1.1-4.3-.6-.5.1-.9.4-1.3.6-.1.1-.3.1-.4-.1 0-.1-.1-.1 0-.2v-5.2c0-.2-.1-.3-.3-.3h-.1c-.9.3-1.5 1.1-1.5 2v14.6c0 .2.1.3.3.3h1.3c.2 0 .3-.1.3-.3v-6.5c0-.4.1-.9.3-1.3.2-.4.4-.7.7-1 .3-.3.6-.5 1-.7.8-.3 1.7-.3 2.6 0 .4.2.7.4 1 .7.3.3.5.6.7 1 .2.4.3.8.3 1.3v6.5c0 .2.1.3.3.3h1.3c.2 0 .3-.1.3-.3v-6.5c0-.9-.2-1.7-.6-2.5-.7-.7-1.2-1.3-1.9-1.8zM115.5 18.4h-1.8c-.1 0-.2-.1-.2-.2v-4.6c0-.1-.1-.2-.2-.2h-.1c-.9.3-1.5 1.1-1.6 2v2.8c0 .1-.1.2-.2.2h-1.8c-.1 0-.2.1-.2.2V20c0 .1.1.2.2.2h1.8c.1 0 .2.1.2.2V30c0 .1.1.2.2.2h1.4c.1 0 .2-.1.2-.2v-9.6c0-.1.1-.2.2-.2h1.8c.1 0 .2-.1.2-.2v-1.4c.1-.1 0-.2-.1-.2zM137.6 18.4h1.4c.1 0 .2.1.2.2v11.5c0 .1-.1.2-.2.2h-1.4c-.1 0-.2-.1-.2-.2V18.6c-.1-.1 0-.2.2-.2zM129.2 19.3c-1.3-.8-2.9-1.1-4.3-.6-.5.1-.9.4-1.3.6h-.1c-.1.1-.3 0-.3-.1v-5.5c0-.1-.1-.2-.2-.2h-.1c-.9.3-1.5 1.1-1.5 2v14.7c0 .1.1.2.2.2h1.4c.1 0 .2-.1.2-.2v-6.5c0-.4.1-.9.3-1.3.2-.4.4-.7.7-1 .9-1 2.4-1.2 3.6-.7.8.3 1.4 1 1.8 1.8.2.4.3.8.3 1.3v6.5c0 .1.1.2.2.2h1.4c.1 0 .2-.1.2-.2v-6.6c0-.9-.2-1.7-.6-2.5-.7-.8-1.2-1.5-1.9-1.9z"/><circle class="st4" cx="138.2" cy="15.9" r="1.1"/><path class="st4" d="M74.4 20.2c-.6-.5-1.2-1-1.9-1.3-1.5-.6-3.2-.6-4.6 0-1.4.6-2.6 1.8-3.2 3.2-.3.7-.5 1.5-.5 2.3 0 .8.2 1.6.5 2.3.3.7.7 1.4 1.3 1.9 1.6 1.6 4 2.2 6.2 1.4.6-.2 1.2-.5 1.7-.9.1-.1.3-.1.4.1 0 0 .1.1.1.2v.6c0 .2.1.3.3.3H76c.2 0 .3-.1.3-.3v-5.5c0-.8-.2-1.6-.5-2.3-.4-.8-.9-1.4-1.4-2zm-.4 5.9c-.4 1-1.2 1.8-2.2 2.2-1 .4-2.2.4-3.2 0s-1.8-1.2-2.2-2.2c-.4-1-.4-2.2 0-3.2s1.2-1.8 2.2-2.2c1-.4 2.2-.4 3.2 0s1.8 1.2 2.2 2.2c.2.5.3 1.1.3 1.6s-.1 1.1-.3 1.6zM36 8c-2.7.3-4.7 2.5-4.8 5.2v4.1c.1.6-.2 1.3-.6 1.7L28 21.6c-.2.2-.3.6-.1.9l1.5 1.4c1.3 1.3 2.1 3 2 4.9 0 1.9-.8 3.6-2.2 4.9-1.3 1.4-3.1 2.2-4.9 2.2-1.8.1-3.6-.7-4.9-2l-1.5-1.4c-.3-.3-.8 0-.9.1l-2.6 2.6c-.3.2-.3.6-.1.9l1.6 1.6c.9.9 2 1.7 3.1 2.3 1.1.6 2.3.9 3.6 1.1 1.2.2 2.5.2 3.7 0 1.3-.2 2.5-.6 3.6-1.2 1.2-.6 2.2-1.4 3.1-2.3 1.1-1.1 2-2.5 2.7-4 .6-1.5.9-3 .9-4.6V8.6c0-.3-.2-.5-.4-.6-.1-.1-.1 0-.2 0z"/></svg>