<svg fill="none" height="36" viewBox="0 0 155 36" width="155" xmlns="http://www.w3.org/2000/svg"><g fill="#0d82fb"><path d="m55.3586 13.6938-.7325 1.5148c-1.0025-.635-2.2976-1.0503-3.4943-1.0503-1.4416 0-2.5414.5128-2.5414 1.7104 0 2.8585 7.1838 1.392 7.1838 6.0099 0 2.5416-2.2481 3.6651-4.7156 3.6651-1.8326 0-3.7138-.6356-4.9351-1.808l.7325-1.4416c1.1001 1.026 2.7604 1.6369 4.2758 1.6369s2.7366-.562 2.7609-1.8328c.0733-3.1025-7.1342-1.5139-7.1099-6.0833 0-2.4673 2.1254-3.4935 4.4708-3.4935 1.54 0 3.0295.4399 4.105 1.1724z"/><path d="m58.901 19.0445c0 2.8342 1.9301 4.7888 4.6179 4.7888 2.6873 0 4.6174-1.9546 4.6174-4.7888 0-2.8098-1.9301-4.7645-4.6174-4.7645-2.6878 0-4.6179 1.9547-4.6179 4.7645zm11.1411-.0243c0 3.8602-2.7119 6.5234-6.5232 6.5234s-6.5237-2.6632-6.5237-6.5234c0-3.8361 2.7124-6.4752 6.5237-6.4752s6.5232 2.6391 6.5232 6.4752z"/><path d="m82.8202 14.4509-1.0505 1.3446c-.9773-.9284-2.2722-1.491-3.8359-1.491-2.6632 0-4.5692 1.93-4.5692 4.7399s1.906 4.7645 4.5692 4.7645c1.6855 0 3.0782-.5863 3.9823-1.6611l1.0994 1.1723c-1.1483 1.3929-2.932 2.2236-5.1549 2.2236-3.7383 0-6.3772-2.6635-6.3772-6.4993s2.6635-6.4993 6.3772-6.4993c2.0767-.0236 3.787.6845 4.9596 1.9058z"/><path d="m85.874 12.5946h1.8814v12.8759h-1.8814zm2.174-3.68873c0 .75638-.5365 1.31883-1.2456 1.31883-.7088 0-1.2456-.56245-1.2456-1.31883 0-.7577.5368-1.32011 1.2456-1.32011.7091 0 1.2456.56241 1.2456 1.32011z"/><path d="m99.7515 21.0233v-1.5388h-4.0074c-2.1497 0-3.2733.659-3.2733 2.0771 0 1.4164 1.1481 2.3448 2.9563 2.3448 2.1738 0 3.8359-1.0992 4.3244-2.8831zm.0243 2.4684c-1.0259 1.3918-2.6628 2.0763-4.7147 2.0763-2.6635 0-4.3739-1.7103-4.3739-3.9334 0-2.2479 1.7836-3.6651 4.8131-3.6894h4.2275v-.7577c0-1.8812-1.1739-3.0049-3.4454-3.0049-1.4173 0-2.7367.5374-4.0798 1.4658l-.8066-1.3926c1.6618-1.0992 3.0538-1.7344 5.2522-1.7344 3.1772 0 4.9368 1.6855 4.9598 4.4465l.025 8.5026h-1.8572z"/><path d="m105.396 7.34182h1.905v18.12868h-1.905z"/><path d="m120.177 18.9469c0-2.1499-1.343-3.6407-3.273-3.6407-1.955 0-3.299 1.5154-3.324 3.6407.025 2.1497 1.344 3.6406 3.324 3.6406 1.93 0 3.273-1.4909 3.273-3.6406zm3.738 6.5236h-3.738v-1.93c-.928 1.3431-2.345 2.0764-4.153 2.0764-3.738 0-6.207-2.7121-6.207-6.7675 0-4.0068 2.444-6.67 6.109-6.67 1.857 0 3.298.7331 4.251 2.0765v-6.91402h3.738z"/><path d="m129.73 18.9469c0 2.1497 1.32 3.6162 3.275 3.6162 1.93 0 3.273-1.4665 3.273-3.6162 0-2.1499-1.343-3.6164-3.273-3.6164-1.955 0-3.275 1.4665-3.275 3.6164zm10.311-.0489c0 4.0068-2.835 6.7189-7.036 6.7189-4.228 0-7.062-2.7121-7.062-6.7189 0-4.0309 2.834-6.6945 7.062-6.6945 4.201 0 7.036 2.6636 7.036 6.6945z"/><path d="m150.498 18.5321c0-2.0285-1.247-3.4211-3.079-3.4211s-3.079 1.4172-3.103 3.4211c.024 2.0035 1.247 3.3953 3.103 3.3953 1.832 0 3.079-1.3918 3.079-3.3953zm3.738 5.7166c0 3.7383-2.81 6.1081-7.013 6.1081-2.223 0-4.202-.7089-5.716-1.7348l1.392-2.6385c1.197.8546 2.59 1.319 4.08 1.319 2.151 0 3.519-1.1483 3.519-2.9311v-1.491c-.88 1.221-2.224 1.9055-3.958 1.9055-3.397 0-5.742-2.5414-5.742-6.352 0-3.714 2.296-6.2303 5.644-6.2303 1.783-.0244 3.152.6845 4.056 1.9057v-1.7837h3.738z"/><path d="m19.5358.0576935c-10.75349 0-19.4704199 6.6340765-19.4704199 14.8173065 0 6.4097 5.3481599 11.8676 12.8342199 13.9336l5.5342 7.079v-13.1908s.0079-3.0209-5.3878-3.6953c-3.39837-.4246-3.12265-4.0978-2.6937-4.4077.2713-.6545 6.3279-1.0139 6.8265-1.2857.4986-.272 1.1616-1.9079 1.966-2.7044 1.4085-1.39488 2.7064-1.7436 4.3818-1.65965.4592.02279.5863.54312.6545 1.27495.3673 3.9722-1.2184 4.1624-1.5154 7.9673-.2297 2.9392 3.9248 4.6813 5.0512 1.0565 1.2787-4.1173-1.6531-9.2993-.8265-9.1614.9413.1571 2.9376 2.7647 2.9326 4.7936-.0132 5.586 1.1759 9.1656 2.3009 11.3004 4.2082-2.718 6.8824-6.7706 6.8824-11.3004 0-8.18323-8.7178-14.8173065-19.4705-14.8173065z"/></g></svg>